<svg width="55" height="51" viewBox="0 0 55 51" fill="none" xmlns="http://www.w3.org/2000/svg">
<g id="Group 48" filter="url(#filter0_d_1_199)">
<rect id="Rectangle 161123974" x="4.28418" y="6.45312" width="46.0947" height="39.8584" rx="5.42291" fill="white"/>
<path id="Rectangle 161123975" d="M4.28418 11.876C4.28418 8.88104 6.7121 6.45312 9.70709 6.45312H44.956C47.951 6.45312 50.3789 8.88104 50.3789 11.876V17.8412H4.28418V11.876Z" fill="#5E8DBA"/>
<circle id="Ellipse 193" cx="12.4185" cy="12.148" r="1.89802" fill="black"/>
<circle id="Ellipse 194" cx="22.7222" cy="12.148" r="1.89802" fill="black"/>
<circle id="Ellipse 195" cx="33.025" cy="12.148" r="1.89802" fill="black"/>
<circle id="Ellipse 196" cx="43.3297" cy="12.148" r="1.89802" fill="black"/>
<rect id="Rectangle 161123976" x="11.0625" y="4.28516" width="2.71145" height="8.9478" rx="1.35573" fill="#D9D9D9"/>
<rect id="Rectangle 161123977" x="21.3662" y="4.28516" width="2.71145" height="8.9478" rx="1.35573" fill="#D9D9D9"/>
<rect id="Rectangle 161123978" x="31.6699" y="4.28516" width="2.71145" height="8.9478" rx="1.35573" fill="#D9D9D9"/>
<rect id="Rectangle 161123979" x="41.9736" y="4.28516" width="2.71145" height="8.9478" rx="1.35573" fill="#D9D9D9"/>
<path id="Vector 751" d="M4.28418 24.6172H50.3789" stroke="#DDDDDD" stroke-width="0.271145" stroke-linejoin="round"/>
<path id="Vector 752" d="M4.28418 31.9375H50.3789" stroke="#DDDDDD" stroke-width="0.271145" stroke-linejoin="round"/>
<path id="Vector 753" d="M4.28418 39.5312H50.3789" stroke="#DDDDDD" stroke-width="0.271145" stroke-linejoin="round"/>
<path id="Vector 754" d="M10.5205 17.8398L10.5205 46.3101" stroke="#DDDDDD" stroke-width="0.271145" stroke-linejoin="round"/>
<path id="Vector 755" d="M17.2998 17.8398L17.2998 46.3101" stroke="#DDDDDD" stroke-width="0.271145" stroke-linejoin="round"/>
<path id="Vector 756" d="M24.0781 17.8398L24.0781 46.3101" stroke="#DDDDDD" stroke-width="0.271145" stroke-linejoin="round"/>
<path id="Vector 757" d="M30.8564 17.8398L30.8564 46.3101" stroke="#DDDDDD" stroke-width="0.271145" stroke-linejoin="round"/>
<path id="Vector 758" d="M37.3633 17.8398L37.3633 46.3101" stroke="#DDDDDD" stroke-width="0.271145" stroke-linejoin="round"/>
<path id="Vector 759" d="M43.8711 17.8398L43.8711 46.3101" stroke="#DDDDDD" stroke-width="0.271145" stroke-linejoin="round"/>
<circle id="Ellipse 197" cx="14.0455" cy="21.3629" r="1.89802" fill="#5E8DBA"/>
<circle id="Ellipse 198" cx="27.3316" cy="28.4136" r="1.89802" fill="#5E8DBA"/>
<circle id="Ellipse 199" cx="34.1109" cy="35.734" r="1.89802" fill="#5E8DBA"/>
<circle id="Ellipse 200" cx="20.8238" cy="43.0582" r="1.89802" fill="#5E8DBA"/>
</g>
<defs>
<filter id="filter0_d_1_199" x="8.15392e-05" y="0.0010581" width="54.6629" height="50.5955" filterUnits="userSpaceOnUse" color-interpolation-filters="sRGB">
<feFlood flood-opacity="0" result="BackgroundImageFix"/>
<feColorMatrix in="SourceAlpha" type="matrix" values="0 0 0 0 0 0 0 0 0 0 0 0 0 0 0 0 0 0 127 0" result="hardAlpha"/>
<feOffset/>
<feGaussianBlur stdDeviation="2.14205"/>
<feComposite in2="hardAlpha" operator="out"/>
<feColorMatrix type="matrix" values="0 0 0 0 0 0 0 0 0 0 0 0 0 0 0 0 0 0 0.12 0"/>
<feBlend mode="normal" in2="BackgroundImageFix" result="effect1_dropShadow_1_199"/>
<feBlend mode="normal" in="SourceGraphic" in2="effect1_dropShadow_1_199" result="shape"/>
</filter>
</defs>
</svg>
